<svg xmlns="http://www.w3.org/2000/svg" viewBox="0 0 288 351">
    <defs>
        <style>.cls-1{fill:#ad9161;}</style>
    </defs>
    <g id="Ebene_2" data-name="Ebene 2">
        <g id="Ebene_1-2" data-name="Ebene 1">
            <path class="cls-1"
                  d="M207,81,144,18,81,81,0,0V171H27L144,54l45,45-44.37,46.13L117,117,99,135l36,36h18L261,63v72l-18-18-18,18,36,36h27V0ZM27,135V63L63,99Z"/>
            <rect class="cls-1" y="171" width="27" height="18"/>
            <rect class="cls-1" y="171" width="288" height="18"/>
            <rect class="cls-1" x="108" y="333" width="72" height="18"/>
            <rect class="cls-1" x="261" y="171" width="27" height="18"/>
            <path fill="#fff" d="M0,315V297H27V225H0V207H72v18H45v72H72v18Z"/>
            <path fill="#fff" d="M180,243h0l-36,54h0l-36-54v72H90V207h18l36,54h0l36-54h18V315H180Z"/>
            <path fill="#fff" d="M270,315V279H234v36l-18.56-.26L216,207h72V314.74Zm0-90H234v36h36Z"/>
        </g>
    </g>
</svg>